<?xml version="1.0" encoding="utf-8"?>
<!-- Generator: Adobe Illustrator 16.0.0, SVG Export Plug-In . SVG Version: 6.00 Build 0)  -->
<!DOCTYPE svg PUBLIC "-//W3C//DTD SVG 1.1//EN" "http://www.w3.org/Graphics/SVG/1.1/DTD/svg11.dtd">
<svg version="1.1" id="Layer_1" xmlns="http://www.w3.org/2000/svg" xmlns:xlink="http://www.w3.org/1999/xlink" x="0px" y="0px"
	 width="632.666px" height="230.667px" viewBox="0 0 632.666 230.667" enable-background="new 0 0 632.666 230.667"
	 xml:space="preserve">
<g>
	<path fill-rule="evenodd" clip-rule="evenodd" fill="#C2202C" d="M33.263,131.377c0,6.542-0.001,12.411,0.001,18.28
		c0.001,4.018,0.04,8.035,0.002,12.054c-0.031,3.366-1.728,5.119-5.081,5.208c-2.766,0.076-5.536,0.025-8.303,0.018
		c-4.729-0.016-6.291-1.555-6.292-6.229c-0.005-20-0.002-40-0.002-60c0-14.732-0.003-29.464,0.002-44.196
		c0.001-4.068,1.07-5.343,5.038-6.271c12.364-2.889,24.82-5.081,37.583-4.752c7.832,0.202,15.434,1.571,22.534,5.05
		c12.724,6.236,19.176,16.957,21.256,30.526c1.859,12.125,0.787,24.04-3.974,35.452c-7.563,18.132-23.819,24.836-41.041,23.395
		C47.168,139.257,40.083,136.566,33.263,131.377z M33.28,81.865c-0.155,0.011-0.311,0.021-0.466,0.032
		c0.509,7.285,0.494,14.655,1.663,21.833c1.44,8.846,5.855,16.18,15.187,18.568c13.288,3.4,23.884-0.998,28.739-14.369
		c2.868-7.899,3.456-16.038,1.924-24.26c-2.33-12.507-8.818-19.171-20.678-21.01c-8.434-1.307-16.722,0.117-24.837,2.467
		c-0.674,0.195-1.442,1.477-1.464,2.273C33.212,72.219,33.28,77.043,33.28,81.865z"/>
	<path fill-rule="evenodd" clip-rule="evenodd" fill="#C2202C" d="M163.422,55.682c6.564-5.221,13.461-8.485,21.255-9.387
		c8.115-0.939,16.221-0.876,24.087,1.834c11.523,3.971,19.182,13.435,19.438,25.633c0.417,19.909,0.216,39.831,0.213,59.748
		c0,3.015-1.597,4.566-4.677,4.699c-3.121,0.135-6.252,0.107-9.376,0.043c-4.029-0.082-5.604-1.704-5.612-5.82
		c-0.029-13.13-0.011-26.26-0.012-39.389c0-4.376,0.053-8.754-0.021-13.129c-0.174-10.227-4.515-15.463-14.668-16.654
		c-4.443-0.521-9.17-0.311-13.544,0.617c-10.143,2.152-14.826,9.587-16.426,19.191c-0.685,4.112-0.817,8.349-0.854,12.533
		c-0.107,12.057-0.031,24.116-0.042,36.173c-0.005,5.226-1.254,6.468-6.485,6.495c-2.68,0.015-5.362,0.066-8.038-0.032
		c-3.507-0.129-5.041-1.64-5.087-5.162c-0.083-6.162-0.033-12.326-0.033-18.488c-0.001-20.187-0.005-40.372,0.002-60.558
		c0.002-5.538,1.241-6.761,6.796-6.776c2.233-0.005,4.466-0.019,6.699,0.004c4.676,0.047,5.975,1.344,6.156,6.07
		C163.214,53.925,163.306,54.52,163.422,55.682z"/>
	<path fill-rule="evenodd" clip-rule="evenodd" fill="#202020" d="M483.889,125.201c-0.83,3.744-1.547,7.199-2.412,10.617
		c-0.125,0.497-0.918,1.069-1.482,1.174c-10.51,1.939-21.094,2.948-31.616,0.464c-13.566-3.202-20.99-14.773-17.961-27.43
		c1.135-4.738,3.919-8.376,7.774-11.189c7.857-5.732,16.972-8.537,26.197-11.073c4.895-1.346,9.848-2.559,14.607-4.292
		c2.787-1.015,5.557-2.578,7.789-4.523c5.541-4.828,4.537-12.263-1.906-15.778c-4.941-2.694-10.359-3.101-15.848-3.064
		c-9.414,0.064-18.369,2.24-27.006,5.874c-1.057,0.444-2.127,0.858-3.476,1.402c0.565-3.864,1.034-7.471,1.676-11.048
		c0.106-0.591,0.885-1.349,1.496-1.52c14.789-4.142,29.761-6.07,44.919-2.401c11.684,2.829,17.005,9.963,17.019,22.002
		c0.023,19.91,0.008,39.82,0.002,59.729c0,0.869-0.076,1.738-0.123,2.727c-4.359,0-8.527,0-13.039,0c0-15.902,0-31.811,0-48.239
		c-10.408,6.167-21.984,7.397-32.545,11.571c-3.205,1.268-6.353,2.883-9.194,4.825c-4.5,3.078-6.44,7.574-5.499,13.03
		c0.869,5.034,4.332,7.837,8.885,9.439c7.794,2.744,15.646,2.003,23.468,0.106C478.272,126.962,480.874,126.086,483.889,125.201z"/>
	<path fill-rule="evenodd" clip-rule="evenodd" fill="#202020" d="M550.736,67.387c0.609-4.019,1.084-7.542,1.729-11.032
		c0.109-0.597,0.863-1.367,1.467-1.537c14.789-4.159,29.764-6.067,44.924-2.402c11.695,2.828,16.951,9.95,16.953,22.021
		c0,19.645,0,39.29,0,58.934c0,1.066,0,2.134,0,3.415c-4.412,0-8.717,0-13.232,0c0-15.889,0-31.751,0-47.314
		c-6.098,2.115-12.08,4.247-18.104,6.263c-5.488,1.838-11.121,3.296-16.494,5.418c-3.086,1.22-6.148,3.028-8.59,5.264
		c-6.973,6.382-5.189,16.581,3.422,20.46c7.24,3.262,14.809,2.797,22.342,1.324c3.564-0.697,7.037-1.855,10.896-2.897
		c-0.805,3.67-1.537,7.21-2.4,10.72c-0.104,0.421-0.871,0.872-1.395,0.968c-10.602,1.941-21.277,2.973-31.885,0.422
		c-13.041-3.136-20.086-13.686-17.973-26.283c0.861-5.129,3.715-9.021,7.738-12.102c6.715-5.139,14.596-7.772,22.545-10.174
		c5.713-1.726,11.582-2.974,17.219-4.905c3.143-1.076,6.293-2.703,8.848-4.801c5.869-4.818,4.838-12.517-1.877-16.08
		c-4.885-2.592-10.211-2.995-15.607-2.962c-9.322,0.056-18.197,2.192-26.768,5.754C553.432,66.3,552.361,66.726,550.736,67.387z"/>
	<path fill-rule="evenodd" clip-rule="evenodd" fill="#202020" d="M379.462,92.14c-21.241,0-42.276,0-63.255,0
		c-3.048,14.476,6.167,31.538,18.842,35.061c7.11,1.976,14.385,1.699,21.521,0.419c6.191-1.11,12.244-2.986,18.657-4.599
		c-0.728,3.658-1.484,7.604-2.342,11.528c-0.078,0.354-0.769,0.702-1.235,0.823c-12.837,3.31-25.867,5.077-38.914,1.974
		c-16.773-3.991-25.894-15.562-29.214-31.99c-2.034-10.065-1.393-20.093,2.001-29.832c5.091-14.611,17.305-23.778,32.759-24.75
		c7.273-0.457,14.454-0.147,21.341,2.589c11.959,4.752,18.327,13.792,19.769,26.345C379.845,83.655,379.462,87.699,379.462,92.14z
		 M317.008,82.674c16.365,0,32.722,0,49.063,0c0.877-10.878-6.729-20.748-17.189-22.189c-2.972-0.409-6.064-0.333-9.064-0.069
		C327.859,61.464,317.935,71.201,317.008,82.674z"/>
	<path fill-rule="evenodd" clip-rule="evenodd" fill="#202020" d="M270.414,90.131c14.426,15.589,28.667,30.978,43.344,46.839
		c-5.513,0-10.535,0.077-15.548-0.084c-0.742-0.024-1.52-1.111-2.158-1.817c-12.035-13.312-24.052-26.641-36.071-39.967
		c-0.358-0.397-0.697-0.812-1.607-1.874c0,15.003,0,29.245,0,43.627c-4.604,0-8.767,0-13.132,0c0-36.271,0-72.555,0-109.046
		c4.198,0,8.418,0,12.947,0c0,19.488,0,38.899,0,58.31c0.336,0.238,0.673,0.476,1.01,0.713c0.49-0.818,0.853-1.755,1.489-2.437
		c9.433-10.127,18.869-20.251,28.415-30.271c0.901-0.946,2.527-1.611,3.849-1.671c4.527-0.203,9.069-0.078,14.327-0.078
		C294.791,65.164,282.742,77.504,270.414,90.131z"/>
	<path fill-rule="evenodd" clip-rule="evenodd" fill="#C2202C" d="M109.994,92.651c0-13.026-0.004-26.051,0.001-39.077
		c0.001-4.932,1.384-6.294,6.405-6.318c2.676-0.013,5.355-0.07,8.028,0.024c3.558,0.126,5.25,1.833,5.253,5.352
		c0.022,26.765,0.021,53.53,0.001,80.295c-0.002,3.447-1.602,5.168-4.983,5.295c-3.207,0.119-6.425,0.115-9.633,0.009
		c-3.585-0.117-5.061-1.742-5.066-5.432C109.983,119.416,109.994,106.033,109.994,92.651z"/>
	<path fill-rule="evenodd" clip-rule="evenodd" fill="#202020" d="M435.362,63.513c-3.021-0.581-5.688-1.214-8.393-1.594
		c-8.745-1.231-16.05,2.401-20.399,10.104c-2.78,4.925-4.005,10.259-4.002,15.9c0.009,15.173,0.003,30.346,0.003,45.52
		c0,1.06,0,2.119,0,3.369c-4.312,0-8.455,0-12.833,0c0-28.032,0-56.074,0-84.276c4.195,0,8.344,0,12.747,0c0,2.771,0,5.493,0,8.214
		c0.299,0.215,0.599,0.43,0.897,0.645c0.242-0.555,0.369-1.209,0.746-1.65c7.601-8.885,17.478-10.225,28.256-8.388
		c0.612,0.104,1.499,0.853,1.588,1.409C434.533,56.261,434.903,59.788,435.362,63.513z"/>
	<path fill-rule="evenodd" clip-rule="evenodd" fill="#202020" d="M531.812,136.862c-4.422,0-8.588,0-12.908,0
		c0-36.357,0-72.577,0-109.029c4.236,0,8.463,0,12.908,0C531.812,64.11,531.812,100.396,531.812,136.862z"/>
	<path fill-rule="evenodd" clip-rule="evenodd" fill="#C2202C" d="M119.793,22.44c1.781,0,3.564-0.028,5.345,0.006
		c3.456,0.067,5.174,1.605,5.303,4.968c0.117,3.024,0.115,6.06-0.006,9.083c-0.122,3.044-1.617,4.672-4.62,4.794
		c-4.001,0.163-8.019,0.16-12.02-0.003c-2.967-0.121-4.571-1.824-4.693-4.778c-0.125-3.024-0.117-6.059-0.008-9.084
		c0.114-3.177,1.914-4.849,5.087-4.985c0.089-0.004,0.178-0.001,0.268-0.001C116.23,22.44,118.012,22.44,119.793,22.44z"/>
	<path fill-rule="evenodd" clip-rule="evenodd" fill="#404040" d="M292.341,182.216c0.978,0,2.03,0,3.837,0
		c-1.574,4.254-3.026,8.176-4.698,12.693c0.305,0.334,1.119,1.238,1.947,2.131c0.831,0.895,1.676,1.775,2.602,2.754
		c-3.541,1.33-5.783-0.301-7.597-2.73c-8.189,4.887-15.091,4.695-18.651-0.404c-3.383-4.846-1.786-10.004,4.616-14.92
		c-0.782-1.953-1.822-3.848-2.291-5.873c-0.957-4.131,2.016-8.373,6.186-9.225c4.516-0.922,8.275,1.145,9.241,5.127
		c0.669,2.762-0.133,5.178-2.162,7.059c-1.423,1.32-3.106,2.357-4.955,3.73c2.647,3.023,5.319,6.072,8.507,9.713
		C290.167,188.619,291.204,185.564,292.341,182.216z M276.75,184.105c-3.518,1.938-4.947,4.52-4.484,7.855
		c0.368,2.654,2.372,4.789,5.148,5.484c3.033,0.758,6.526-0.51,8.512-3.209C282.875,190.867,279.795,187.466,276.75,184.105z
		 M278.919,180.613c1.767-1.971,3.668-3.508,4.783-5.49c1.281-2.275-0.249-5.115-2.592-5.785c-2.415-0.691-4.725,0.912-5.189,3.654
		C275.455,175.753,276.415,178.033,278.919,180.613z"/>
	<path fill-rule="evenodd" clip-rule="evenodd" fill="#404040" d="M412.285,196.32c-0.155,1.613-0.248,2.574-0.355,3.686
		c-1.108,0-2.126,0-3.256,0c0-11.523,0-22.988,0-34.607c1.311,0,2.44,0,3.934,0c0,4.711,0,9.367,0,14.785
		c2.816-3.139,5.676-4.576,9.153-4.318c5.247,0.391,8.548,4.062,9.381,10.291c0.925,6.922-2.549,12.857-8.416,14.248
		C418.602,201.382,415.216,200.046,412.285,196.32z M412.099,188.535c0.785,2.184,1.119,4.707,2.45,6.484
		c2.99,3.988,9.221,2.922,11.455-1.686c2.237-4.615,0.933-11.104-2.744-13.256c-2.241-1.311-4.627-1.303-6.86-0.014
		C413.225,181.892,412.478,184.914,412.099,188.535z"/>
	<path fill-rule="evenodd" clip-rule="evenodd" fill="#404040" d="M331.797,188.312c0.04-7.43,4.735-12.43,11.731-12.49
		c6.814-0.059,11.646,5.025,11.648,12.26c0.004,7.422-4.936,12.631-11.969,12.623C336.381,200.697,331.759,195.677,331.797,188.312z
		 M351.126,188.105c-0.556-1.85-0.84-3.84-1.718-5.52c-2.515-4.812-9.021-5.049-11.727-0.359c-1.014,1.756-1.522,4.004-1.606,6.055
		c-0.22,5.404,3.07,9.375,7.352,9.354C347.688,197.611,350.831,193.591,351.126,188.105z"/>
	<path fill-rule="evenodd" clip-rule="evenodd" fill="#404040" d="M111.078,188.365c0.023-7.486,4.958-12.648,11.994-12.543
		c6.749,0.102,11.398,5.066,11.43,12.207c0.033,7.42-4.884,12.65-11.915,12.676C115.764,200.73,111.056,195.681,111.078,188.365z
		 M130.199,188.226c0.106-0.033,0.211-0.064,0.317-0.098c-0.616-1.926-0.943-4.014-1.906-5.746
		c-2.574-4.635-8.941-4.758-11.599-0.174c-1.021,1.762-1.575,4-1.669,6.053c-0.237,5.191,2.988,9.195,7.124,9.367
		c4.152,0.172,7.438-3.598,7.731-8.869C130.208,188.582,130.199,188.404,130.199,188.226z"/>
	<path fill-rule="evenodd" clip-rule="evenodd" fill="#404040" d="M435.3,188.494c-0.01-7.541,4.789-12.672,11.854-12.672
		c6.829,0,11.584,5.082,11.557,12.346c-0.029,7.416-4.998,12.586-12.048,12.537C439.949,200.658,435.309,195.671,435.3,188.494z
		 M446.979,198.021c1.474-0.725,3.169-1.189,4.382-2.221c3.967-3.373,4.125-11.438,0.241-14.939
		c-1.157-1.045-2.954-1.787-4.513-1.898c-4.316-0.309-7.535,3.74-7.604,9.139C439.418,193.441,442.554,197.533,446.979,198.021z"/>
	<path fill-rule="evenodd" clip-rule="evenodd" fill="#404040" d="M540.5,189.007c-5.652,0-11.154,0-16.646,0
		c-0.141,7.197,4.705,9.674,14.521,7.582c1.209,1.631,1.254,2.934-1.125,3.311c-2.277,0.359-4.613,0.834-6.883,0.68
		c-7.73-0.529-11.725-6.367-10.412-14.873c1.068-6.928,6.855-11.006,13.518-9.527C538.447,177.283,541.305,182.289,540.5,189.007z
		 M524.016,185.832c4.145,0,8.277,0,12.396,0c0.328-4.031-1.775-6.768-5.275-7.051C527.279,178.468,524.354,181.304,524.016,185.832
		z"/>
	<path fill-rule="evenodd" clip-rule="evenodd" fill="#404040" d="M214.625,189.013c-5.546,0-10.96,0-16.354,0
		c-0.528,6.963,3.96,9.287,14.543,7.643c1.08,1.764,0.757,2.908-1.426,3.322c-0.787,0.15-1.576,0.287-2.366,0.414
		c-11.665,1.883-17.297-6.477-14.214-16.879c1.744-5.885,7.411-8.807,13.322-7.271C212.93,177.488,215.739,182.792,214.625,189.013z
		 M210.827,185.873c-0.079-4.672-2.325-7.18-6.089-7.104c-3.68,0.072-6.466,3.184-6.262,7.104
		C202.528,185.873,206.585,185.873,210.827,185.873z"/>
	<path fill-rule="evenodd" clip-rule="evenodd" fill="#404040" d="M385.251,180.207c-0.255-0.672-0.529-1.393-0.861-2.266
		c3.758-2.133,7.624-2.729,11.645-1.467c2.91,0.912,4.733,3.156,4.852,6.135c0.228,5.76,0.066,11.537,0.066,17.436
		c-0.719,0-1.676,0-2.845,0c-0.198-0.682-0.432-1.479-0.655-2.242c-1.875,0.904-3.595,2.029-5.481,2.582
		c-3.87,1.133-7.658-0.682-8.909-3.959c-1.395-3.656,0.12-7.754,3.982-9.365c2.49-1.037,5.299-1.422,8.008-1.783
		c1.763-0.234,2.377-0.711,1.874-2.52c-0.761-2.74-2.888-4.266-6.136-3.873C388.964,179.107,387.186,179.73,385.251,180.207z
		 M397.235,187.693c-2.395,0.34-4.431,0.439-6.358,0.951c-2.169,0.574-4.159,1.867-3.903,4.393c0.148,1.455,1.023,3.33,2.178,4.082
		c2.051,1.336,4.439,0.598,6.086-1.109c0.975-1.012,1.557-2.543,1.934-3.943C397.483,190.91,397.235,189.603,397.235,187.693z"/>
	<path fill-rule="evenodd" clip-rule="evenodd" fill="#404040" d="M140.348,176.521c0.987,0,2.011,0,3.108,0
		c0.233,1.072,0.451,2.07,0.583,2.674c2.277-1.096,4.355-2.549,6.65-3.105c4.705-1.141,9.126,1.936,9.514,6.924
		c0.432,5.566,0.099,11.193,0.099,16.977c-1.062,0-2.249,0-3.811,0c0-3.322,0.031-6.596-0.012-9.867
		c-0.024-1.871-0.044-3.756-0.29-5.604c-0.444-3.344-2.219-5.086-5.06-5.227c-3.075-0.152-5.948,1.803-6.4,4.916
		c-0.434,2.979-0.313,6.041-0.381,9.07c-0.05,2.205-0.01,4.414-0.01,6.752c-1.457,0-2.584,0-3.99,0
		C140.348,192.251,140.348,184.47,140.348,176.521z"/>
	<path fill-rule="evenodd" clip-rule="evenodd" fill="#404040" d="M172.109,200.074c-1.582,0-2.723,0-4.188,0
		c0-3.984,0-7.881,0-11.779c0-3.828,0-7.656,0-11.711c1.186,0,2.277,0,3.452,0c0.112,1.018,0.217,1.969,0.306,2.768
		c2.098-1.092,4.047-2.568,6.236-3.154c5.092-1.361,9.757,1.812,10.115,7.076c0.374,5.486,0.083,11.02,0.083,16.715
		c-1.267,0-2.461,0-3.998,0c0-3.562,0.008-7.107-0.004-10.654c-0.005-1.426,0.006-2.857-0.099-4.277
		c-0.253-3.418-2.029-5.482-4.858-5.754c-3.057-0.293-5.853,1.506-6.633,4.621c-0.424,1.693-0.368,3.523-0.395,5.295
		C172.072,192.765,172.109,196.314,172.109,200.074z"/>
	<path fill-rule="evenodd" clip-rule="evenodd" fill="#404040" d="M497.487,200.033c-0.883,0-1.922,0-3.07,0
		c-0.262-0.775-0.535-1.584-0.693-2.057c-2.191,0.916-4.215,2.125-6.396,2.594c-3.584,0.77-6.934-1.227-8.02-4.287
		c-1.223-3.445,0.021-7.172,3.439-8.896c2.094-1.055,4.523-1.482,6.838-2.043c1.1-0.266,2.281-0.188,3.367-0.26
		c1.023-5.822-3.104-7.514-11.342-4.777c-0.283-0.711-0.568-1.43-0.934-2.344c4.162-2.293,8.322-2.951,12.615-1.061
		c2.59,1.141,3.691,3.5,4.053,6.209c0.107,0.793,0.135,1.602,0.137,2.404C497.495,190.308,497.487,195.101,497.487,200.033z
		 M493.063,187.611c-2.357,0.488-4.836,0.715-7.09,1.547c-2.617,0.967-3.557,3.811-2.486,6.209c0.92,2.059,3.395,2.852,5.996,1.918
		C492.975,196.031,494.266,192.876,493.063,187.611z"/>
	<path fill-rule="evenodd" clip-rule="evenodd" fill="#404040" d="M244.068,179.669c-1.437-0.17-2.472-0.293-3.612-0.43
		c0-0.902,0-1.668,0-2.654c1.127-0.139,2.231-0.277,3.419-0.424c0.764-2.463-1.423-6.824,4.209-6.184c0,1.9,0,3.898,0,6.197
		c2.238,0.113,4.226,0.213,6.321,0.32c0,0.953,0,1.73,0,2.797c-1.975,0.102-3.966,0.203-6.136,0.314
		c0,4.943-0.166,9.65,0.063,14.338c0.134,2.734,1.245,3.229,5.387,3.293c1.002,2.176,0.284,3.209-2.104,3.414
		c-4.167,0.361-6.846-1.422-7.266-5.572c-0.393-3.885-0.214-7.826-0.278-11.742C244.053,182.193,244.068,181.046,244.068,179.669z"
		/>
	<path fill-rule="evenodd" clip-rule="evenodd" fill="#404040" d="M328.034,177.337c-0.213,0.783-0.439,1.613-0.716,2.627
		c-4.85-1.143-9.65-1.727-12.529,3.441c-1.968,3.533-1.868,7.326,0.544,10.643c3.047,4.188,7.353,3.66,11.945,2.406
		c0.272,0.934,0.528,1.812,0.772,2.652c-5.994,2.879-12.948,1.627-16.308-2.783c-3.339-4.385-3.123-11.623,0.309-16.021
		C315.527,175.849,323.655,174.691,328.034,177.337z"/>
	<path fill-rule="evenodd" clip-rule="evenodd" fill="#404040" d="M237.698,177.14c-0.235,0.965-0.439,1.803-0.683,2.801
		c-4.907-1.074-9.72-1.729-12.558,3.477c-1.921,3.525-1.862,7.305,0.538,10.623c3.033,4.193,7.331,3.652,11.98,2.414
		c0.217,0.959,0.416,1.834,0.603,2.656c-5.458,2.75-12.228,1.736-15.706-2.213c-3.593-4.08-3.875-11.373-0.618-15.957
		C224.602,176.23,231.152,174.634,237.698,177.14z"/>
	<path fill-rule="evenodd" clip-rule="evenodd" fill="#404040" d="M107.352,177.314c-0.248,0.852-0.507,1.744-0.779,2.68
		c-4.73-1.189-9.129-1.619-12.192,2.912c-2.142,3.168-1.973,8.068,0.215,11.125c2.29,3.201,5.606,3.93,11.817,2.531
		c0.803,1.326,1.7,2.684-0.691,3.346c-4.776,1.322-9.477,1.307-13.342-2.23c-3.691-3.377-4.389-7.795-3.288-12.537
		C90.875,177.458,99.858,173.523,107.352,177.314z"/>
	<path fill-rule="evenodd" clip-rule="evenodd" fill="#404040" d="M502.318,179.458c0-1.18,0-1.953,0-2.867
		c1.127-0.145,2.162-0.279,3.256-0.42c0.307-1.926,0.387-3.877,1.025-5.623c0.205-0.559,1.881-0.582,3.299-0.961
		c0,2.391,0,4.4,0,6.697c2.174,0,4.008,0,6.08,0c0.072,1.098,0.129,1.928,0.211,3.164c-1.268,0-2.324,0.119-3.344-0.023
		c-2.457-0.348-3.076,0.77-2.951,3.041c0.166,3.025,0.008,6.068,0.055,9.102c0.074,4.957,0.668,5.551,5.697,5.701
		c0.133,0.797,0.271,1.639,0.404,2.443c-5.648,2.545-9.893,0.031-10.07-5.896c-0.105-3.568-0.158-7.145,0-10.709
		C506.092,180.578,505.723,178.814,502.318,179.458z"/>
	<path fill-rule="evenodd" clip-rule="evenodd" fill="#404040" d="M364.847,200.031c-1.319,0-2.517,0-3.847,0
		c0-11.531,0-22.926,0-34.555c1.28,0,2.468,0,3.847,0C364.847,176.984,364.847,188.449,364.847,200.031z"/>
	<path fill-rule="evenodd" clip-rule="evenodd" fill="#404040" d="M372.802,165.382c1.354,0,2.489,0,3.824,0
		c0,11.574,0,23.039,0,34.646c-1.284,0-2.482,0-3.824,0C372.802,188.527,372.802,177.132,372.802,165.382z"/>
	<path fill-rule="evenodd" clip-rule="evenodd" fill="#404040" d="M464.649,199.978c-0.078-0.332-0.227-0.67-0.227-1.008
		c-0.014-7.395-0.012-14.789-0.012-22.398c1.029,0,2.043,0,3.283,0c0.129,1.219,0.262,2.48,0.4,3.805
		c1.361-1.303,2.479-2.699,3.902-3.617c0.953-0.611,2.564-1.023,3.467-0.613c0.641,0.291,0.59,2.102,0.848,3.227
		c-6.205,1.367-7.758,3.33-7.785,9.479c-0.018,3.645-0.004,7.291-0.004,11.127C467.122,199.978,465.93,199.978,464.649,199.978z"/>
	<path fill-rule="evenodd" clip-rule="evenodd" fill="#FFFFFF" d="M276.75,184.105c3.045,3.361,6.124,6.762,9.177,10.131
		c-1.986,2.699-5.479,3.967-8.512,3.209c-2.776-0.695-4.781-2.83-5.148-5.484C271.803,188.625,273.233,186.042,276.75,184.105z"/>
</g>
</svg>
