<svg xmlns="http://www.w3.org/2000/svg" version="1.1" xmlns:xlink="http://www.w3.org/1999/xlink" xmlns:svgjs="http://svgjs.dev/svgjs" width="1000" height="623" viewBox="0 0 1000 623"><g transform="matrix(1,0,0,1,-0.6060606060606233,0.2522267206477409)"><svg viewBox="0 0 396 247" data-background-color="#ffffff" preserveAspectRatio="xMidYMid meet" height="623" width="1000" xmlns="http://www.w3.org/2000/svg" xmlns:xlink="http://www.w3.org/1999/xlink"><g id="tight-bounds" transform="matrix(1,0,0,1,0.2400000000000091,-0.09999999999999432)"><svg viewBox="0 0 395.52 247.2" height="247.2" width="395.52"><g><svg></svg></g><g><svg viewBox="0 0 395.52 247.2" height="247.2" width="395.52"><g transform="matrix(1,0,0,1,123.52688450704224,47.215199999999996)"><svg viewBox="0 0 148.4662309859155 152.7696" height="152.7696" width="148.4662309859155"><g><svg viewBox="0 0 148.4662309859155 152.7696" height="152.7696" width="148.4662309859155"><g><svg viewBox="0 0 148.4662309859155 152.7696" height="152.7696" width="148.4662309859155"><g><svg viewBox="0 0 148.4662309859155 152.7696" height="152.7696" width="148.4662309859155"><g id="textblocktransform"><svg viewBox="0 0 148.4662309859155 152.7696" height="152.7696" width="148.4662309859155" id="textblock"><g><svg viewBox="0 0 148.4662309859155 152.7696" height="152.7696" width="148.4662309859155"><g transform="matrix(1,0,0,1,0,0)"><svg width="148.4662309859155" viewBox="4.8 -35.5 34.5 35.5" height="152.7696" data-palette-color="#4a596d"><path d="M39.3 0L37.55 0 37.55-32 22.65-6.85 21.45-6.85 6.55-32 6.55 0 4.8 0 4.8-35.5 6.4-35.5 22.05-9.1 37.7-35.5 39.3-35.5 39.3 0Z" opacity="1" transform="matrix(1,0,0,1,0,0)" fill="#4a596d" class="wordmark-text-0" data-fill-palette-color="primary" id="text-0"></path></svg></g></svg></g></svg></g></svg></g></svg></g></svg></g></svg></g><g><path d="M197.833 0c30.402 0 58.24 10.976 79.768 29.183l-11.147 0c-19.26-14.022-42.974-22.294-68.621-22.295-25.647 0-49.361 8.272-68.621 22.295l-11.147 0c21.528-18.206 49.366-29.183 79.768-29.183zM321.433 123.6c0 2.034-0.049 4.056-0.146 6.066l0-12.132c0.097 2.01 0.146 4.032 0.146 6.066zM197.833 247.2c-30.402 0-58.24-10.976-79.768-29.183l11.147 0c19.26 14.022 42.974 22.294 68.621 22.295 25.647 0 49.361-8.272 68.621-22.295l11.147 0c-21.528 18.206-49.366 29.183-79.768 29.183z" fill="#4a596d" stroke="transparent" data-fill-palette-color="tertiary"></path></g></svg></g><defs></defs></svg><rect width="395.52" height="247.2" fill="none" stroke="none" visibility="hidden"></rect></g></svg></g></svg>